<?xml version="1.0" encoding="utf-8"?>
<!-- Generator: Adobe Illustrator 24.0.1, SVG Export Plug-In . SVG Version: 6.00 Build 0)  -->
<svg version="1.0" id="Слой_1" xmlns="http://www.w3.org/2000/svg" xmlns:xlink="http://www.w3.org/1999/xlink" x="0px" y="0px"
	 viewBox="0 0 1080 1080" style="enable-background:new 0 0 1080 1080;" xml:space="preserve">
<style type="text/css">
	.st0{stroke:#000000;stroke-miterlimit:10;}
</style>
<g>
	<path class="st0" d="M447.1,641.5c-6.9-26.6-11.7-53.7-14.5-81c-6.3-61.4,3.3-97.9,12.4-122.8c3.9-10.6,9.7-18.7,12.4-18.8h0.2
		l0.4,0c0,0,11.6,3.3,16,15.9c9.2,26.3,17.6,61.8,9.9,125.3c-9.4,77.3-35.5,117.1-60,145.8l0,0c-2.4,2.9-4.8,5.6-7,8.2l-2,2.2
		c-8.5,9.7-18.4,15.5-25.1,14.5c-5.2-1.6-15.7-5-18.6-9.7c-16.4-21.5-53.6-85.9-45.6-219.8c10-166.5,122.3-214.8,127.3-216.8
		c13.3-5.3,19.8-20.5,14.5-33.8s-20.5-19.8-33.8-14.5l0,0c-6.1,2.4-147.6,61.1-159.7,261.8c-8.5,146.4,31.7,222.5,56.4,254.9
		c16,21,32.1,27.5,44.4,29.3h2c19.7,2.8,46.2-4.2,64.2-19.3c24,40.4,42.3,66.1,60.7,74.4c11.5,5.4,26.1,8.3,38.9,8.5h0.3
		c12.6-0.2,25-3.2,36.4-8.7c16.8-8,38.5-32.6,63.1-74.1c11.7,9.3,25.9,14.8,40.9,15.7c0.9,0.3,1.7,0.4,2.6,0.5c0.8,0,1.6,0,2.5,0
		h5.2h0.3c15.7-0.4,37.3-6.9,57.3-32.3c30.6-38.9,65.2-113.6,57.1-248.3C794,297.8,652.4,239.1,646.4,236.7
		c-3.1-1.3-6.3-1.9-9.7-1.8c-14.3,0-25.9,11.5-26,25.8c0,10.6,6.4,20.2,16.3,24.1c1.5,0.7,117.1,48.6,127.1,216.8
		c7.5,124.9-25.5,187.1-45.9,213c-4.4,5.7-16.4,12.5-23.8,12.6c-5.6,0.2-12.4-3.9-18.6-11l-1.6-1.8c19.4-47.5,31.4-97.7,35.6-148.8
		c6.7-74.3-5.5-118.6-15.3-145.5c-11.6-32.2-35-52.5-61-54c-0.4-0.1-0.8-0.2-1.2-0.3h-2.5c-1.9,0-4,0-6,0.3h-0.6
		c-20.2,2.6-43.2,16.9-55.2,51.4c-15.8,45.3-19.7,89.7-12.6,148.5c8.2,67.3,28.1,111.1,48,141.4c10.1-20.6,18.3-42,24.5-64.1
		c-10.9-26.7-17.9-54.8-21-83.5c-7.7-63.5,0.7-98.9,9.9-125.3c4.1-11.7,9.7-16.9,12.7-17.1c3-0.2,10.6,4.5,16.3,20
		c8.7,24.1,18.1,59.8,12.4,123.1c-14.1,155-80.9,223.3-93.5,229.4c-4.5,2.3-9.4,3.6-14.5,3.7l0,0c-5.4-0.2-12.7-1.5-17.5-3.9
		c-4.9-2.1-21.3-21.4-45.3-67.8c24.1-32.4,48.9-79.1,57.9-155.8c7.4-58.8,3.6-103.2-12.3-148.5c-9.7-28.2-29-46.8-52-51l-6.2-0.7
		c-0.6-0.1-0.7-0.2-4.1-0.2c-27.4,0-52,20.3-64.3,54.2c-10.8,30.1-22.6,74-15.1,145.7c4.3,45.2,17.9,80.6,33,123.4"/>
</g>
</svg>
